<svg xmlns="http://www.w3.org/2000/svg" width="36.384" height="42" viewBox="0 0 36.384 42">
  <path id="Defused" d="M-4835.808,435h-5.285v-2.274h2.283l.005-.029c.334-1.567,3.307-15.351,4.559-16.916a6.525,6.525,0,0,1,2.5-1.989,4.249,4.249,0,0,1,1.64-.366,1.766,1.766,0,0,1,.194.009v-2.263l-3.677-2.31v-9.08l6.08-6.783h2.251v12.658l2.34,2.147,2.3-2.147V393h2.113l5.917,6.783v9.08l-3.539,2.31v2.262l.007,0a2.489,2.489,0,0,1,.478-.043c.813,0,2.441.311,4.207,2.391,2.1,2.475,4.434,16.787,4.457,16.932h2.273V435h-4.633l-13.578-18.132L-4835.808,435Zm12.857-24.921a2.276,2.276,0,0,0-2.274,2.274,2.276,2.276,0,0,0,2.274,2.274,2.276,2.276,0,0,0,2.273-2.274A2.276,2.276,0,0,0-4822.951,410.079Z" transform="translate(4841.093 -393)" fill="#fff"/>
</svg>
