<svg xmlns="http://www.w3.org/2000/svg" xmlns:xlink="http://www.w3.org/1999/xlink" width="283" height="130" viewBox="0 0 283 130">
  <defs>
    <linearGradient id="linear-gradient" y1="0.5" x2="1" y2="0.5" gradientUnits="objectBoundingBox">
      <stop offset="0" stop-color="#e60404" stop-opacity="0"/>
      <stop offset="1" stop-color="#e60404" stop-opacity="0.4"/>
    </linearGradient>
    <clipPath id="clip-path">
      <rect id="Round_Reason_BG_OT" data-name="Round Reason BG OT" width="283" height="130" fill="url(#linear-gradient)"/>
    </clipPath>
  </defs>
  <g id="Round_Reason_OT_SVG" data-name="Round Reason OT SVG" transform="translate(-1258 -803.52)">
    <g id="Mask_Group_2" data-name="Mask Group 2" transform="translate(1258 803.52)" clip-path="url(#clip-path)">
      <g id="Path_50" data-name="Path 50" transform="translate(364.146 -57.352) rotate(45)" fill="none">
        <path d="M0,0,165.95,5.95,171.9,171.9l-18.076-.648-67.02-2.44L5.95,165.95Z" stroke="none"/>
        <path d="M 6.227127075195312 6.227127075195312 L 11.746337890625 160.1518096923828 L 87.0234375 162.8165130615234 L 165.6736907958984 165.6736907958984 L 160.1543884277344 11.74642944335938 L 6.227127075195312 6.227127075195312 M -1.52587890625e-05 -1.52587890625e-05 L 165.9504089355469 5.950408935546875 L 171.9008331298828 171.9008331298828 L 5.950408935546875 165.9504089355469 L -1.52587890625e-05 -1.52587890625e-05 Z" stroke="none" fill="rgba(230,4,4,0.9)"/>
      </g>
      <g id="Path_51" data-name="Path 51" transform="translate(324.146 -57.352) rotate(45)" fill="none">
        <path d="M0,0,165.95,5.95,171.9,171.9l-18.076-.648-67.02-2.44L5.95,165.95Z" stroke="none"/>
        <path d="M 6.227127075195312 6.227127075195312 L 11.746337890625 160.1518096923828 L 87.0234375 162.8165130615234 L 165.6736907958984 165.6736907958984 L 160.1543884277344 11.74642944335938 L 6.227127075195312 6.227127075195312 M -1.52587890625e-05 -1.52587890625e-05 L 165.9504089355469 5.950408935546875 L 171.9008331298828 171.9008331298828 L 5.950408935546875 165.9504089355469 L -1.52587890625e-05 -1.52587890625e-05 Z" stroke="none" fill="rgba(230,4,4,0.7)"/>
      </g>
      <g id="Path_52" data-name="Path 52" transform="translate(288.146 -57.352) rotate(45)" fill="none">
        <path d="M0,0,165.95,5.95,171.9,171.9l-18.076-.648-67.02-2.44L5.95,165.95Z" stroke="none"/>
        <path d="M 6.227127075195312 6.227127075195312 L 11.746337890625 160.1518096923828 L 87.0234375 162.8165130615234 L 165.6736907958984 165.6736907958984 L 160.1543884277344 11.74642944335938 L 6.227127075195312 6.227127075195312 M -1.52587890625e-05 -1.52587890625e-05 L 165.9504089355469 5.950408935546875 L 171.9008331298828 171.9008331298828 L 5.950408935546875 165.9504089355469 L -1.52587890625e-05 -1.52587890625e-05 Z" stroke="none" fill="rgba(230,4,4,0.5)"/>
      </g>
      <g id="Path_53" data-name="Path 53" transform="translate(251.009 -57.352) rotate(45)" fill="none">
        <path d="M0,0,165.95,5.95,171.9,171.9l-18.076-.648-67.02-2.44L5.95,165.95Z" stroke="none"/>
        <path d="M 6.227127075195312 6.227127075195312 L 11.746337890625 160.1518096923828 L 87.0234375 162.8165130615234 L 165.6736907958984 165.6736907958984 L 160.1543884277344 11.74642944335938 L 6.227127075195312 6.227127075195312 M -1.52587890625e-05 -1.52587890625e-05 L 165.9504089355469 5.950408935546875 L 171.9008331298828 171.9008331298828 L 5.950408935546875 165.9504089355469 L -1.52587890625e-05 -1.52587890625e-05 Z" stroke="none" fill="rgba(230,4,4,0.3)"/>
      </g>
      <g id="Path_54" data-name="Path 54" transform="translate(229.174 -76.868) rotate(45)" fill="none">
        <path d="M0,0,188.983,6.776l6.906,192.595-20.585-.738-76.321-2.78L6.906,192.595Z" stroke="none"/>
        <path d="M 6.227157592773438 6.227142333984375 L 12.70173645019531 186.7959442138672 L 99.20063018798828 189.8571472167969 L 189.6611633300781 193.1436920166016 L 183.1864929199219 12.57231140136719 L 6.227157592773438 6.227142333984375 M 0 -1.52587890625e-05 L 188.9825286865234 6.776275634765625 L 195.8883209228516 199.3708343505859 L 6.905792236328125 192.5945739746094 L 0 -1.52587890625e-05 Z" stroke="none" fill="rgba(230,4,4,0.2)"/>
      </g>
      <g id="Path_55" data-name="Path 55" transform="translate(208.63 -93.474) rotate(45)" fill="none">
        <path d="M0,0,217.451,7.8l7.719,215.266-23.686-.849-87.818-3.2L7.719,215.266Z" stroke="none"/>
        <path d="M 6.227142333984375 6.227142333984375 L 13.51463317871094 209.4672546386719 L 113.8838729858398 213.0206604003906 L 218.9423828125 216.8357391357422 L 211.6548004150391 13.59307861328125 L 6.227142333984375 6.227142333984375 M 1.52587890625e-05 1.52587890625e-05 L 217.4508361816406 7.797042846679688 L 225.1695098876953 223.0628662109375 L 201.4840087890625 222.2135772705078 L 113.6655807495117 219.0166931152344 L 7.71868896484375 215.2658386230469 L 1.52587890625e-05 1.52587890625e-05 Z" stroke="none" fill="rgba(230,4,4,0.1)"/>
      </g>
    </g>
    <rect id="Round_Reason_BG_OT-2" data-name="Round Reason BG OT" width="283" height="130" transform="translate(1258 803.52)" fill="url(#linear-gradient)"/>
  </g>
</svg>
